<svg width="24" height="25" viewBox="0 0 24 25" fill="none" xmlns="http://www.w3.org/2000/svg">
<path d="M22 10.5V6.5C22 5.39 21.1 4.5 20 4.5H4C2.9 4.5 2.01 5.39 2.01 6.5V10.5C3.11 10.5 4 11.4 4 12.5C4 13.6 3.11 14.5 2 14.5V18.5C2 19.6 2.9 20.5 4 20.5H20C21.1 20.5 22 19.6 22 18.5V14.5C20.9 14.5 20 13.6 20 12.5C20 11.4 20.9 10.5 22 10.5ZM20 9.04C18.81 9.73 18 11.03 18 12.5C18 13.97 18.81 15.27 20 15.96V18.5H4V15.96C5.19 15.27 6 13.97 6 12.5C6 11.02 5.2 9.73 4.01 9.04L4 6.5H12H20V9.04Z" fill="#2C2B2B"/>
<path d="M16.1668 11.5582L13.171 11.2998L12.0002 8.5415L10.8293 11.304L7.8335 11.5582L10.1085 13.529L9.42516 16.4582L12.0002 14.904L14.5752 16.4582L13.896 13.529L16.1668 11.5582ZM12.0002 14.1248L10.4335 15.0707L10.8502 13.2873L9.46683 12.0873L11.2918 11.929L12.0002 10.2498L12.7127 11.9332L14.5377 12.0915L13.1543 13.2915L13.571 15.0748L12.0002 14.1248Z" fill="black"/>
</svg>
