<svg width="228" height="71" viewBox="0 0 228 71" fill="none" xmlns="http://www.w3.org/2000/svg">
<g filter="url(#filter0_d_1_387)">
<path d="M38.8734 27.9025C38.8083 27.9288 38.7431 27.9533 38.6815 27.9847C38.6199 28.0162 38.5812 28.0372 38.5336 28.0635C38.4861 28.0897 38.4139 28.1317 38.3576 28.1684C38.3012 28.2051 38.2643 28.2331 38.2185 28.2681C38.1727 28.3031 38.1111 28.3521 38.0583 28.3976C38.0055 28.443 37.9738 28.4728 37.9333 28.513C37.8928 28.5532 37.8347 28.6127 37.7872 28.6652C37.7396 28.7177 37.7115 28.7544 37.6745 28.7999C37.6375 28.8454 37.5865 28.9153 37.5442 28.9748C37.5019 29.0343 37.4791 29.0693 37.4491 29.1182L37.428 29.1532C37.3946 29.2092 37.3629 29.2669 37.3329 29.3282C37.3224 29.3456 37.3136 29.3631 37.3048 29.3806C37.2801 29.4279 37.2555 29.4768 37.2344 29.5258C37.2132 29.5748 37.1956 29.6133 37.178 29.657C37.1604 29.7007 37.1534 29.7112 37.1428 29.741L37.1111 29.8197C37.09 29.8757 37.0706 29.9334 37.053 29.9946C37.0354 30.0558 37.0196 30.0961 37.0055 30.1468C36.9791 30.2395 36.9527 30.334 36.9315 30.4319C36.9151 30.4972 36.901 30.5637 36.8893 30.6313C36.8893 30.6681 36.8752 30.7031 36.8682 30.7415C36.8611 30.78 36.8541 30.8203 36.8488 30.8622C36.8329 30.9602 36.8224 31.0634 36.8118 31.1666C36.8118 31.2156 36.7995 31.2628 36.796 31.3118C36.796 31.331 36.796 31.3485 36.796 31.3678C36.7837 31.5427 36.7766 31.7071 36.7766 31.8838C36.7817 32.596 36.8673 33.3054 37.0319 33.9986C37.6868 36.8586 39.5582 39.8148 41.8469 41.5064C42.1151 41.7079 42.3949 41.8937 42.685 42.0626L42.8047 42.1273C42.8716 42.1641 42.9385 42.2025 43.0054 42.2358L43.1585 42.311L43.324 42.3897L43.4913 42.4614L43.6374 42.5209C43.6955 42.5436 43.7518 42.5646 43.8135 42.5839L43.9525 42.6311L44.1198 42.6836L44.2677 42.7221L44.4191 42.7606L44.6198 42.799L44.7131 42.8165L44.7923 42.8253L45.993 42.1396C45.2489 42.0209 44.5347 41.7614 43.8892 41.3752C40.6146 39.5 37.9738 34.9345 37.9738 31.1911C37.9738 29.671 38.4104 28.52 39.1463 27.8098L39.0301 27.8431C38.9755 27.8605 38.9245 27.8815 38.8734 27.9025Z" fill="#263238"/>
<path d="M39.9333 26.6369C39.7504 26.7004 39.5736 26.78 39.4051 26.8748L38.2097 27.5605C38.736 27.2647 39.3287 27.1053 39.9333 27.097V26.6369Z" fill="#37474F"/>
<path d="M44.7148 42.8164L44.6215 42.7989L44.4208 42.7604L44.2694 42.7219L44.1708 42.6974L44.1215 42.6834L43.9596 42.6309L43.8205 42.5837L43.6444 42.5207L43.4983 42.4613L43.3311 42.3895L43.1656 42.3108L43.0124 42.2356C42.9455 42.2024 42.8768 42.1639 42.8082 42.1254C42.7712 42.1044 42.7325 42.0869 42.6938 42.0642C42.4141 41.9006 42.1438 41.722 41.8839 41.5289C41.1386 40.9772 40.4629 40.3382 39.8716 39.6257C39.3609 39.0143 38.9027 38.3613 38.5019 37.6736C37.8399 36.5461 37.3471 35.3286 37.0389 34.0597L37.0284 34.0002C36.864 33.3081 36.7784 32.5999 36.7731 31.8889C36.7731 31.7244 36.7731 31.5653 36.7907 31.4078C36.7907 31.3851 36.7907 31.3623 36.7907 31.3396C36.7898 31.3239 36.7898 31.3081 36.7907 31.2924C36.8013 31.1612 36.8153 31.0317 36.8347 30.9058L36.8453 30.8253C36.8453 30.7833 36.8611 30.7449 36.8682 30.7029C36.8752 30.6609 36.891 30.5874 36.9034 30.528C36.9157 30.4685 36.928 30.4055 36.9421 30.353C36.9562 30.3006 36.9773 30.2271 36.9967 30.1641C36.9967 30.1396 37.009 30.1151 37.016 30.0924C37.0231 30.0697 37.016 30.0732 37.0248 30.0644C37.0407 30.0137 37.0565 29.9612 37.0741 29.9105C37.0917 29.8598 37.1199 29.7915 37.1446 29.7356C37.1692 29.6796 37.2044 29.5834 37.2396 29.5099C37.2748 29.4364 37.2907 29.4084 37.3171 29.3577L37.3488 29.2982C37.377 29.2458 37.4069 29.195 37.4368 29.1443C37.4667 29.0936 37.4949 29.0551 37.5248 29.0114L37.5653 28.9536C37.5865 28.9204 37.6093 28.8889 37.6322 28.8592L37.6868 28.791C37.7026 28.7717 37.7167 28.7507 37.7343 28.7315L37.8312 28.6213L37.8646 28.5881C37.9051 28.5461 37.9456 28.5041 37.9896 28.4639C38.009 28.4464 38.0319 28.4306 38.0512 28.4149C38.1041 28.3694 38.1569 28.3257 38.2114 28.2854C38.266 28.2452 38.303 28.2172 38.3505 28.1857C38.3981 28.1542 38.4667 28.114 38.5266 28.0808C38.5864 28.0475 38.6234 28.0265 38.6745 28.0021C38.7255 27.9776 38.8012 27.9461 38.8664 27.9198C38.9315 27.8936 38.9685 27.8779 39.0213 27.8604C39.0741 27.8429 39.1005 27.8359 39.141 27.8236L39.2308 27.8009C39.2836 27.7887 39.3364 27.7729 39.391 27.7624C39.4456 27.7519 39.5459 27.7379 39.6234 27.7292C39.7009 27.7204 39.7273 27.7134 39.7818 27.7099C39.8364 27.7064 39.8769 27.7099 39.9262 27.7099V27.1222C39.3216 27.1305 38.7289 27.2899 38.2026 27.5857C38.1287 27.6295 38.0565 27.675 37.9843 27.7239L37.9474 27.7484C37.7416 27.8941 37.5522 28.0612 37.3822 28.247L37.3241 28.3099C37.2731 28.3677 37.2238 28.4271 37.1745 28.4849L37.1322 28.5461C37.0507 28.6552 36.9749 28.7685 36.9051 28.8854C36.8805 28.9292 36.8541 28.9729 36.8294 29.0184C36.8048 29.0638 36.7678 29.1338 36.7379 29.1933C36.708 29.2528 36.6815 29.314 36.6534 29.3682C36.6252 29.4224 36.6006 29.4907 36.5759 29.5536C36.5372 29.6516 36.502 29.753 36.4685 29.8563C36.4544 29.9052 36.4386 29.956 36.4245 30.0067C36.3999 30.0941 36.377 30.1816 36.3541 30.2743C36.3435 30.3198 36.333 30.3635 36.3242 30.409C36.2948 30.542 36.2702 30.6784 36.2502 30.8183C36.2502 30.8533 36.2414 30.8883 36.2379 30.9215C36.222 31.0405 36.2097 31.1594 36.2009 31.2714C36.2009 31.3151 36.2009 31.3588 36.1921 31.4026C36.1816 31.5583 36.1763 31.7157 36.1763 31.8766C36.1906 32.9143 36.3573 33.9444 36.671 34.9343C36.8321 35.4586 37.0237 35.9732 37.2449 36.4754C37.3623 36.7296 37.4796 36.9809 37.597 37.2293C37.9779 37.9761 38.4202 38.6905 38.9192 39.3651C39.9104 40.7033 41.1058 41.8385 42.3909 42.575C42.9012 42.8768 43.4486 43.112 44.0194 43.2747L44.787 42.8373L44.7148 42.8164Z" fill="#455A64"/>
<path d="M50.7394 36.8781C50.7394 33.4566 48.3222 29.2969 45.3399 27.5861C43.8434 26.729 42.4913 26.6503 41.5142 27.2153C41.2167 27.3902 39.2255 28.529 38.921 28.6986C37.9386 29.2566 37.3365 30.4601 37.3365 32.1761C37.3365 35.5976 39.7537 39.7573 42.736 41.4681C44.229 42.3252 45.581 42.4039 46.5581 41.8407C46.8574 41.6657 48.8644 40.5217 49.1655 40.3486C50.1355 39.7888 50.7394 38.5871 50.7394 36.8781Z" fill="#BA68C8"/>
<path opacity="0.3" d="M50.7394 36.8781C50.7394 33.4566 48.3222 29.2969 45.3399 27.5861C43.8434 26.729 42.4913 26.6503 41.5142 27.2153C41.2167 27.3902 39.2255 28.529 38.921 28.6986C37.9386 29.2566 37.3365 30.4601 37.3365 32.1761C37.3365 35.5976 39.7537 39.7573 42.736 41.4681C44.229 42.3252 45.581 42.4039 46.5581 41.8407C46.8574 41.6657 48.8644 40.5217 49.1655 40.3486C50.1355 39.7888 50.7394 38.5871 50.7394 36.8781Z" fill="black"/>
<path d="M42.7272 29.0789C45.7078 30.7896 48.125 34.9511 48.125 38.3708C48.125 41.7906 45.7201 43.1795 42.7272 41.4687C39.7343 39.758 37.3277 35.5983 37.3277 32.1768C37.3277 28.7553 39.7484 27.3681 42.7272 29.0789Z" fill="#BA68C8"/>
<path d="M45.0158 42.853H45.0422C45.1338 42.853 45.2183 42.8634 45.3134 42.8652H45.3574C45.4868 42.8657 45.6162 42.8581 45.7447 42.8425H45.7588C45.8666 42.8283 45.9735 42.8085 46.0792 42.783C46.1232 42.7742 46.169 42.7637 46.213 42.7515C46.2957 42.7288 46.3785 42.7025 46.4595 42.6728C46.5405 42.643 46.581 42.6238 46.6355 42.5958C46.6655 42.5836 46.6919 42.5696 46.72 42.5556C46.979 42.4254 47.2165 42.2567 47.4242 42.0553C46.9555 42.1837 46.4649 42.2129 45.9841 42.141L44.7834 42.8267C44.868 42.8372 44.9419 42.8477 45.0158 42.853Z" fill="#263238"/>
<path d="M44.1867 28.0638C44.2173 28.5225 44.4166 28.9539 44.7465 29.276C47.3187 31.6253 49.1989 35.4386 49.1989 38.6695C49.1989 41.0204 48.206 42.6927 46.5828 43.2542C46.7902 43.1871 46.9892 43.0967 47.1761 42.9848L48.3715 42.2991C49.6426 41.5714 50.3996 40.0251 50.3996 37.9803C50.3996 34.7512 48.5176 30.9361 45.9455 28.5886C45.6165 28.2658 45.4174 27.8347 45.3856 27.3764V22.6167L44.1867 23.3059L43.5952 22.9665L44.1867 23.3059V28.0638Z" fill="#37474F"/>
<path d="M44.7465 29.2764C44.4166 28.9543 44.2173 28.5229 44.1867 28.0642V23.3063L43.5952 22.9669V28.3494C43.5967 28.4211 43.605 28.4925 43.6198 28.5628L43.6304 28.6152C43.6472 28.69 43.669 28.7637 43.6955 28.8356C43.7384 28.9472 43.7908 29.0548 43.8522 29.1575L43.9015 29.2292C43.9473 29.3016 43.9991 29.3701 44.0564 29.4339C44.0913 29.4738 44.1289 29.5112 44.1691 29.5458C44.3117 29.67 44.4508 29.7995 44.5881 29.9307L44.6972 30.0374C44.817 30.1563 44.9349 30.277 45.0494 30.403L45.1022 30.4572C45.2324 30.5989 45.3592 30.7441 45.486 30.8945L45.581 31.0099C45.6849 31.1359 45.787 31.2653 45.8856 31.3948L45.9578 31.4892C46.0757 31.6449 46.1902 31.8058 46.3011 31.9668L46.3786 32.084C46.4701 32.2187 46.5546 32.3569 46.6444 32.495L46.7183 32.614C46.8222 32.7889 46.9208 32.9534 47.0176 33.1265L47.0722 33.2297C47.1514 33.3749 47.2289 33.5219 47.3028 33.6705L47.3715 33.8087C47.4583 33.9848 47.5411 34.1632 47.6197 34.344C47.6285 34.3685 47.6391 34.3912 47.6479 34.4157C47.7166 34.5749 47.7817 34.7358 47.8451 34.8985C47.8627 34.9475 47.882 34.9947 47.8997 35.0437C47.9683 35.2186 48.0335 35.4128 48.0915 35.5964C48.1496 35.7801 48.2042 35.9673 48.2535 36.1527L48.2852 36.2717C48.331 36.4466 48.3732 36.632 48.4102 36.8122L48.426 36.9031C48.4589 37.0687 48.4871 37.2332 48.5106 37.3964C48.5106 37.4262 48.5194 37.4576 48.5246 37.4874C48.5475 37.6623 48.5669 37.8372 48.5792 38.0121C48.5792 38.0506 48.5792 38.0891 48.588 38.1276C48.5986 38.3025 48.6074 38.4879 48.6074 38.6646C48.6074 39.7142 48.3979 40.5888 48.0229 41.2727C47.9425 41.4192 47.8512 41.5595 47.75 41.6925C47.7007 41.7573 47.6497 41.8202 47.5968 41.8797C47.544 41.9392 47.4894 41.9952 47.4331 42.0546C47.2254 42.256 46.9879 42.4247 46.7289 42.5549C46.7025 42.5689 46.6743 42.5829 46.6444 42.5952C46.5863 42.6231 46.5264 42.6494 46.4683 42.6721C46.4102 42.6949 46.3169 42.7246 46.2412 42.7456H46.2219C46.1779 42.7578 46.1338 42.7683 46.0881 42.7771L46.0088 42.7981C45.9296 42.8138 45.8486 42.8261 45.7676 42.8365H45.7536C45.6251 42.8522 45.4957 42.8598 45.3662 42.8593H45.2659C45.1955 42.8593 45.1233 42.8593 45.0511 42.847H45.0159C44.942 42.847 44.868 42.833 44.7923 42.8225L44.0247 43.2599C44.4506 43.3819 44.8913 43.4455 45.3346 43.4488C45.3944 43.4488 45.4525 43.4488 45.5106 43.44C45.5687 43.4313 45.6708 43.44 45.7448 43.4278L45.8803 43.4085C45.9666 43.3963 46.0564 43.3841 46.1321 43.3683C46.1726 43.3683 46.2131 43.3508 46.2536 43.3403L46.3028 43.3263C46.3786 43.3071 46.4543 43.2896 46.5282 43.2651L46.581 43.2494C48.2042 42.6931 49.1972 41.0156 49.1972 38.6646C49.1989 35.439 47.3187 31.6257 44.7465 29.2764Z" fill="#455A64"/>
<path d="M41.4949 27.8047L41.5195 27.7942C41.5339 27.7889 41.5475 27.7819 41.56 27.7732L42.7607 27.084C42.8379 27.0351 42.9005 26.9664 42.9417 26.8851C42.9829 26.8038 43.0013 26.713 42.9948 26.6222V21.2398L41.7959 21.929V27.3114C41.8045 27.4146 41.78 27.5179 41.7259 27.6065C41.6718 27.6951 41.591 27.7645 41.4949 27.8047Z" fill="#37474F"/>
<path d="M40.0477 27.0956C40.336 27.0968 40.6235 27.1237 40.9069 27.1761C40.9418 27.1856 40.9784 27.1866 41.0138 27.1793C41.0492 27.172 41.0823 27.1564 41.1105 27.1339C41.1387 27.1113 41.1611 27.0825 41.1759 27.0497C41.1907 27.0169 41.1974 26.9811 41.1956 26.9452V26.4099C40.765 26.415 40.3383 26.4918 39.9333 26.6373V27.1026C39.972 27.1009 40.009 27.0956 40.0477 27.0956Z" fill="#37474F"/>
<path d="M40.1991 27.6869C40.3417 27.6922 40.484 27.705 40.6252 27.7254C40.7625 27.7464 40.9033 27.7744 41.0442 27.8094H41.0706H41.0847C41.1298 27.8202 41.1757 27.8278 41.222 27.8321H41.2343C41.2724 27.8356 41.3107 27.8356 41.3488 27.8321H41.3699C41.4058 27.8263 41.4411 27.8175 41.4755 27.8059C41.5716 27.7657 41.6525 27.6963 41.7065 27.6077C41.7606 27.5191 41.7851 27.4158 41.7766 27.3126V21.9302L41.185 21.5803V26.9365C41.1869 26.9724 41.1801 27.0082 41.1653 27.041C41.1505 27.0738 41.1281 27.1026 41.1 27.1251C41.0718 27.1477 41.0386 27.1632 41.0032 27.1706C40.9678 27.1779 40.9312 27.1768 40.8963 27.1674C40.6129 27.115 40.3254 27.0881 40.0372 27.0869C39.9984 27.0869 39.9615 27.0869 39.9227 27.0869V27.6747C39.965 27.6747 40.0055 27.6747 40.0477 27.6747C40.09 27.6747 40.1516 27.6852 40.1991 27.6869Z" fill="#455A64"/>
<path d="M50.1866 40.1327C50.1866 35.0774 46.6145 28.9376 42.2079 26.4029C40.0072 25.14 38.016 25.021 36.5742 25.8466L34.164 27.2285C32.7239 28.0577 31.8313 29.8297 31.8313 32.3556C31.8313 37.4109 35.4034 43.5507 39.8083 46.0853C42.0089 47.3465 44.0001 47.4672 45.442 46.6416L47.8504 45.2562C49.294 44.4323 50.1866 42.6586 50.1866 40.1327Z" fill="#BA68C8"/>
<path opacity="0.1" d="M45.4501 46.6398C48.5656 44.8526 48.5655 39.0569 45.4497 33.6948C42.3339 28.3328 37.2824 25.4348 34.1668 27.222C31.0513 29.0093 31.0514 34.805 34.1672 40.167C37.283 45.5291 42.3345 48.4271 45.4501 46.6398Z" fill="black"/>
<path d="M47.7905 41.5089C47.7905 36.4536 44.2184 30.3138 39.8118 27.7792C37.6076 26.5145 35.6129 26.3973 34.1693 27.2281L32.9757 27.9121C31.5285 28.7395 30.6342 30.515 30.6342 33.0444C30.6342 38.0997 34.2063 44.2395 38.6111 46.7741C40.8153 48.0371 42.81 48.156 44.2536 47.3269L45.4543 46.6377C46.8962 45.8103 47.7905 44.0313 47.7905 41.5089Z" fill="#F0F0F0"/>
<path d="M38.6111 28.4627C43.0124 30.9903 46.5898 37.1371 46.5898 42.1924C46.5898 47.2477 43.0177 49.2961 38.6111 46.7684C34.2045 44.2408 30.6342 38.094 30.6342 33.0387C30.6342 27.9834 34.2063 25.9403 38.6111 28.4627Z" fill="#E0E0E0"/>
<path d="M47.1761 42.1972C47.1761 36.9635 43.4649 30.577 38.9016 27.9602C37.5583 27.1888 36.2608 26.7987 35.0425 26.7987C34.2095 26.7872 33.3888 26.998 32.6658 27.4092C32.2679 27.6401 30.6588 28.5549 30.2503 28.7911C28.613 29.7444 27.6377 31.749 27.6377 34.4219C27.6377 39.6556 31.3489 46.0421 35.9122 48.6589C37.2555 49.4303 38.553 49.8204 39.7713 49.8204C40.6098 49.8319 41.4359 49.618 42.1621 49.2012C42.5529 48.972 44.1427 48.0694 44.5476 47.8368C46.1954 46.8869 47.1761 44.8788 47.1761 42.1972Z" fill="#455A64"/>
<g filter="url(#filter1_dd_1_387)">
<path d="M39.7713 49.8217C38.5547 49.8217 37.2555 49.4317 35.9122 48.6602C31.3507 46.0364 27.6377 39.6569 27.6377 34.4232C27.6377 30.6273 29.6024 28.1767 32.6429 28.1767C33.8612 28.1767 35.1587 28.5667 36.502 29.3382C41.0635 31.962 44.7765 38.3415 44.7765 43.5752C44.7765 47.3693 42.8117 49.8217 39.7713 49.8217Z" fill="#37474F"/>
</g>
<path d="M37.9879 44.4039C37.3021 44.3833 36.634 44.183 36.0513 43.8231C33.7732 42.5165 31.9194 39.3276 31.9194 36.7125C31.9194 34.8181 32.9017 33.5936 34.4193 33.5936C35.1019 33.6156 35.7666 33.8152 36.3471 34.1726C38.6252 35.481 40.4791 38.6699 40.4791 41.285C40.4879 43.1794 39.5055 44.4039 37.9879 44.4039Z" fill="#263238"/>
<path d="M27.812 53.3023C27.812 48.0686 24.1008 41.6821 19.5376 39.0635C18.1943 38.2938 16.8968 37.9037 15.6802 37.9037C14.8472 37.8918 14.0263 38.1027 13.3035 38.5142C12.9056 38.7451 11.2948 39.66 10.8881 39.8961C9.24902 40.8495 8.27368 42.8541 8.27368 45.5252C8.27368 50.7589 11.9849 57.1471 16.5482 59.764C17.8915 60.5354 19.189 60.9255 20.4055 60.9255C21.2453 60.9354 22.0722 60.719 22.7981 60.2992C23.1907 60.0701 24.7804 59.1675 25.1836 58.9348C26.8314 57.992 27.812 55.9839 27.812 53.3023Z" fill="#455A64"/>
<path d="M20.4073 60.9253C19.1907 60.9253 17.8932 60.5352 16.5499 59.7638C11.9866 57.1399 8.27545 50.7587 8.27545 45.525C8.27545 41.7309 10.2402 39.2802 13.2824 39.2802C14.4989 39.2802 15.7964 39.6703 17.1397 40.4399C21.7013 43.0638 25.4142 49.445 25.4142 54.6787C25.4125 58.4728 23.4477 60.9253 20.4073 60.9253Z" fill="#37474F"/>
<path d="M24.8226 54.6781C24.8226 49.6228 21.2505 43.4829 16.8439 40.9483C14.6397 39.6836 12.645 39.5646 11.2102 40.3955L10.0166 41.0812C8.57116 41.9086 7.67505 43.6824 7.67505 46.2118C7.67505 51.2671 11.2472 57.4069 15.6538 59.9415C17.858 61.2062 19.8509 61.3234 21.2875 60.496L22.4881 59.8068C23.93 58.9777 24.8226 57.204 24.8226 54.6781Z" fill="#F0F0F0"/>
<path d="M15.645 41.6365C20.0463 44.1641 23.6237 50.311 23.6237 55.3663C23.6237 60.4216 20.0516 62.4699 15.645 59.9493C11.2384 57.4286 7.66626 51.2748 7.66626 46.2195C7.66626 41.1642 11.2384 39.1088 15.645 41.6365Z" fill="#E0E0E0"/>
<path d="M23.6238 55.3668C23.6238 50.3115 20.0517 44.1717 15.645 41.637C13.4444 40.3741 11.4532 40.2551 10.0114 41.0808L7.60119 42.4574C6.15931 43.2866 5.26672 45.0603 5.26672 47.5844C5.26672 52.6397 8.83884 58.7796 13.2454 61.3142C15.4443 62.5772 17.4355 62.6961 18.8791 61.8705L21.2858 60.4903C22.7294 59.6682 23.6238 57.8945 23.6238 55.3668Z" fill="#BA68C8"/>
<path opacity="0.1" d="M13.2454 43.0132C17.6468 45.5408 21.2224 51.6876 21.2224 56.7429C21.2224 61.7982 17.6521 63.8466 13.2454 61.3189C8.83884 58.7913 5.26672 52.6445 5.26672 47.5892C5.26672 42.5339 8.83884 40.4855 13.2454 43.0132Z" fill="black"/>
<path d="M7.51659 45.8904C7.45145 45.9149 7.38631 45.9411 7.32293 45.9709C7.25955 46.0006 7.22434 46.0234 7.17681 46.0513C7.12927 46.0793 7.05709 46.1196 7.00076 46.1563C6.94442 46.193 6.90745 46.221 6.86167 46.256C6.8159 46.291 6.75428 46.3382 6.70147 46.3837L6.57471 46.5009C6.52541 46.5499 6.47788 46.6006 6.43034 46.6531C6.38281 46.7056 6.35288 46.7423 6.31591 46.7878C6.27894 46.8333 6.22964 46.9032 6.18739 46.9627C6.14514 47.0222 6.12225 47.0589 6.09232 47.1079L6.0712 47.1429C6.03775 47.1989 6.00606 47.2548 5.97437 47.3178L5.94796 47.3703C5.92331 47.4175 5.89866 47.4647 5.87578 47.5137C5.85289 47.5627 5.83881 47.6012 5.8212 47.6449C5.8036 47.6886 5.79655 47.7009 5.78599 47.7289L5.7543 47.8093C5.73317 47.8653 5.71381 47.923 5.69444 47.9843C5.67508 48.0455 5.66275 48.0857 5.64867 48.1364C5.6205 48.2286 5.59585 48.323 5.57473 48.4198C5.55888 48.4863 5.5448 48.5528 5.53247 48.621L5.51135 48.7294C5.51135 48.7697 5.49726 48.8099 5.49198 48.8501C5.47614 48.9498 5.46557 49.0513 5.45501 49.1545C5.45501 49.2035 5.44269 49.2507 5.43917 49.3014C5.43917 49.3189 5.43917 49.3382 5.43917 49.3574C5.42684 49.5236 5.4198 49.695 5.4198 49.8734C5.42489 50.5857 5.51052 51.295 5.67508 51.9883C6.33352 54.8535 8.20672 57.8097 10.4989 59.5012C10.7679 59.7016 11.0476 59.8873 11.3369 60.0575L11.4567 60.1222L11.6574 60.2307L11.8105 60.3059L11.976 60.3829C12.0324 60.4091 12.0869 60.4318 12.1521 60.4546C12.2172 60.4773 12.2489 60.4966 12.2982 60.5141L12.4742 60.5788L12.6116 60.626L12.7876 60.6767L12.9355 60.717L13.0869 60.7537C13.1538 60.7694 13.2207 60.7817 13.2876 60.7939L13.3792 60.8114L13.4584 60.8202L14.6327 60.124C13.8853 60.0072 13.1679 59.7476 12.52 59.3596C9.25071 57.4844 6.60112 52.9276 6.60112 49.1755C6.60112 47.6572 7.03773 46.5062 7.77363 45.796C7.7349 45.8065 7.6944 45.8152 7.65743 45.8274L7.51659 45.8904Z" fill="#263238"/>
<path d="M8.57292 44.6247C8.3904 44.6883 8.2137 44.7673 8.04477 44.8609L6.84937 45.5466C7.37627 45.2532 7.96897 45.0962 8.57292 45.09V44.6247Z" fill="#37474F"/>
<path d="M13.3511 60.8048L13.2595 60.7873C13.1926 60.7751 13.1275 60.7628 13.0588 60.7471C12.9902 60.7313 12.9585 60.7226 12.9074 60.7103L12.8071 60.6858L12.7595 60.6701L12.5835 60.6194L12.4426 60.5721L12.2666 60.5074C12.2173 60.4899 12.1698 60.4689 12.1205 60.4479L11.9444 60.378L11.7789 60.2993L11.6258 60.224L11.4215 60.1138L11.3071 60.0526C11.0279 59.8885 10.7575 59.7098 10.4973 59.5174C9.75193 58.9656 9.07628 58.3266 8.48497 57.6142C7.97647 57.0026 7.52064 56.3496 7.12232 55.662C6.45768 54.5315 5.96301 53.3104 5.65403 52.0376C5.65403 52.0184 5.65403 51.9991 5.64171 51.9781C5.48402 51.2859 5.40431 50.5783 5.40404 49.8686C5.40404 49.7041 5.40404 49.5449 5.42164 49.3875C5.42164 49.3648 5.42164 49.3403 5.42164 49.3175C5.42084 49.3018 5.42084 49.286 5.42164 49.2703C5.43221 49.1391 5.44629 49.0114 5.46566 48.8855L5.47622 48.805C5.47622 48.763 5.49206 48.7228 5.49911 48.6826C5.50615 48.6423 5.52199 48.5671 5.53256 48.5076C5.54312 48.4482 5.5572 48.3852 5.57305 48.3327C5.58889 48.2802 5.60826 48.205 5.62586 48.1421L5.64699 48.0721C5.64779 48.0628 5.64779 48.0534 5.64699 48.0441C5.6646 47.9916 5.68044 47.9409 5.69805 47.8902C5.71565 47.8394 5.74382 47.7695 5.76671 47.7152C5.78959 47.661 5.82833 47.5631 5.86354 47.4913C5.89875 47.4196 5.91459 47.3899 5.941 47.3392L5.97269 47.2779C6.00086 47.2272 6.03079 47.1747 6.06072 47.1257C6.09064 47.0768 6.11881 47.0365 6.14874 46.9928L6.18747 46.9333L6.2843 46.8301L6.33712 46.7637C6.35472 46.7444 6.36881 46.7234 6.38641 46.7042C6.40402 46.6849 6.44979 46.6307 6.48324 46.594L6.51493 46.5607L6.63993 46.4365C6.6593 46.4191 6.68218 46.4051 6.70155 46.3876C6.75436 46.3421 6.80718 46.3001 6.86176 46.2599C6.91633 46.2196 6.9533 46.1917 7.00084 46.1602C7.04837 46.1287 7.11703 46.0885 7.17689 46.0552C7.23675 46.022 7.27372 45.9992 7.32302 45.9747C7.37231 45.9503 7.45153 45.9188 7.51667 45.8943L7.6716 45.8331L7.79132 45.7981L7.86878 45.7806C7.9216 45.7666 7.97441 45.7526 8.02899 45.7421C8.08357 45.7316 8.18215 45.7176 8.26138 45.7089C8.31419 45.7089 8.36525 45.6931 8.41983 45.6879C8.4744 45.6826 8.5149 45.6879 8.56419 45.6879V45.1001C7.95962 45.1085 7.36689 45.2679 6.84063 45.5637C6.76493 45.6057 6.69275 45.6529 6.62232 45.7001L6.58535 45.7264C6.379 45.8719 6.18895 46.0391 6.01846 46.2249L5.96213 46.2879C5.91107 46.3456 5.86178 46.4051 5.81248 46.4628C5.7984 46.482 5.78431 46.503 5.76847 46.5223C5.68924 46.6307 5.61354 46.7444 5.54312 46.8721L5.46742 47.0033C5.43573 47.061 5.4058 47.1205 5.37587 47.1782C5.34594 47.2359 5.31953 47.2989 5.29136 47.3619C5.2632 47.4249 5.23855 47.4826 5.2139 47.5473C5.17517 47.6453 5.13996 47.745 5.10651 47.8482C5.09066 47.8972 5.07658 47.9479 5.0625 47.9986C5.03785 48.0878 5.0132 48.1735 4.99207 48.268L4.96038 48.4027C4.93222 48.5356 4.90757 48.6721 4.8882 48.812C4.8882 48.8452 4.8882 48.882 4.87588 48.9152C4.86003 49.0324 4.84771 49.1514 4.83891 49.2651L4.82834 49.3963C4.81954 49.5519 4.8125 49.7094 4.8125 49.8703C4.82497 50.906 4.98986 51.9344 5.30193 52.9227C5.463 53.4465 5.65464 53.9604 5.87586 54.4621C5.98736 54.7151 6.10473 54.9664 6.22797 55.216C6.6081 55.9632 7.05035 56.6777 7.55012 57.3518C8.5413 58.69 9.7367 59.8252 11.0219 60.5634C11.5329 60.8638 12.0801 61.0989 12.6504 61.2631L13.418 60.824L13.3511 60.8048Z" fill="#455A64"/>
<path d="M18.6449 55.2637C18.6449 51.8439 16.2277 47.6825 13.2454 45.9718C11.7489 45.1146 10.3968 45.0359 9.41974 45.6027L6.82648 47.0843C5.84411 47.6423 5.242 48.8475 5.242 50.5618C5.242 53.9833 7.65921 58.143 10.6416 59.8537C12.1345 60.7108 13.4866 60.7913 14.4637 60.2263L17.071 58.7359C18.0411 58.1744 18.6449 56.9762 18.6449 55.2637Z" fill="#BA68C8"/>
<path opacity="0.3" d="M18.6449 55.2637C18.6449 51.8439 16.2277 47.6825 13.2454 45.9718C11.7489 45.1146 10.3968 45.0359 9.41974 45.6027L6.82648 47.0843C5.84411 47.6423 5.242 48.8475 5.242 50.5618C5.242 53.9833 7.65921 58.143 10.6416 59.8537C12.1345 60.7108 13.4866 60.7913 14.4637 60.2263L17.071 58.7359C18.0411 58.1744 18.6449 56.9762 18.6449 55.2637Z" fill="black"/>
<path d="M14.4532 60.2284C16.5617 59.0188 16.5617 55.0968 14.4532 51.4683C12.3448 47.8397 8.92625 45.8787 6.81776 47.0882C4.70927 48.2978 4.70925 52.2198 6.81771 55.8483C8.92617 59.4769 12.3447 61.4379 14.4532 60.2284Z" fill="#BA68C8"/>
<path d="M13.4404 59.1464C15.084 58.2079 15.0898 55.1536 13.4534 52.3245C11.817 49.4954 9.15802 47.9628 7.51441 48.9014C5.8708 49.8399 5.86496 52.8942 7.50136 55.7233C9.13777 58.5524 11.7967 60.0849 13.4404 59.1464Z" fill="#263238"/>
<path d="M12.7172 51.435L10.2384 53.8944L7.27893 48.7989C8.0342 48.3616 9.08347 48.4245 10.2384 49.0875C11.2218 49.6879 12.0665 50.4878 12.7172 51.435Z" fill="#455A64"/>
<path d="M14.4302 56.3012C14.4302 57.6271 13.9602 58.5612 13.1979 58.9915L10.2384 53.8942L12.7172 51.4348C13.7542 52.9059 14.4302 54.7006 14.4302 56.3012Z" fill="#37474F"/>
<path d="M13.2014 58.993C12.4461 59.425 11.3898 59.3691 10.2384 58.7061C9.25333 58.1077 8.40917 57.3059 7.76312 56.3551L10.2384 53.8957L13.2014 58.993Z" fill="#455A64"/>
<path d="M10.2384 53.8951L7.76311 56.3545C6.72263 54.8852 6.05011 53.0852 6.05011 51.4951C6.05011 50.1657 6.52017 49.2351 7.28248 48.7996L10.2384 53.8951Z" fill="#37474F"/>
<path d="M13.6538 60.8389H13.6785C13.77 60.8389 13.8545 60.8494 13.9496 60.8494H13.9936C14.1256 60.8494 14.2541 60.8407 14.3809 60.8267H14.395C14.5028 60.8137 14.6098 60.7944 14.7154 60.7689C14.7594 60.7584 14.8052 60.7497 14.8492 60.7375C14.932 60.7147 15.0147 60.6867 15.0939 60.657C15.1731 60.6273 15.2172 60.608 15.27 60.5818L15.3545 60.5398C15.6138 60.4108 15.8513 60.2427 16.0587 60.0413C15.5899 60.1691 15.0992 60.1977 14.6186 60.1252L13.4161 60.8127C13.5024 60.8232 13.5799 60.8337 13.6538 60.8389Z" fill="#263238"/>
<path d="M12.8246 46.0515C12.8556 46.51 13.0548 46.9413 13.3845 47.2637C15.9548 49.6112 17.8368 53.4263 17.8368 56.6554C17.8368 59.0081 16.8439 60.6786 15.2207 61.2401C15.4282 61.174 15.6273 61.0842 15.814 60.9725L17.0094 60.2868C18.2805 59.5591 19.0375 58.0128 19.0375 55.9679C19.0375 52.7388 17.1555 48.9237 14.5834 46.5762C14.2565 46.2526 14.06 45.8215 14.0306 45.364V40.6043L12.8317 41.2935L12.2401 40.9542L12.8317 41.2935L12.8246 46.0515Z" fill="#37474F"/>
<path d="M13.3845 47.2641C13.0548 46.9417 12.8556 46.5104 12.8246 46.0519V41.2939L12.2331 40.9546V46.337C12.2346 46.4082 12.2429 46.479 12.2577 46.5487L12.2683 46.6029C12.2851 46.6777 12.3069 46.7513 12.3334 46.8233C12.376 46.9344 12.4284 47.0415 12.4901 47.1434C12.506 47.1696 12.5218 47.1924 12.5394 47.2169C12.5852 47.2888 12.6364 47.3573 12.6926 47.4215C12.7285 47.461 12.7667 47.4984 12.807 47.5335C12.9496 47.6559 13.0887 47.7854 13.226 47.9183L13.3352 48.025C13.4549 48.144 13.5729 48.2647 13.6873 48.3889L13.7401 48.4448C13.8704 48.5865 13.9971 48.7317 14.1221 48.8804C14.1556 48.9189 14.1873 48.9591 14.219 48.9976C14.3228 49.1235 14.425 49.2512 14.5235 49.3824C14.5482 49.4139 14.5728 49.4436 14.5957 49.4751C14.7137 49.6326 14.8264 49.7917 14.9478 49.9544L15.0253 50.0716C15.1168 50.2063 15.2013 50.3427 15.2911 50.4809L15.3651 50.6016C15.4689 50.7766 15.5675 50.941 15.6644 51.1124L15.7189 51.2174C15.7982 51.3626 15.8756 51.5095 15.9496 51.6582L16.0182 51.7946C16.1045 51.9695 16.1943 52.1445 16.2647 52.3316C16.2753 52.3544 16.2858 52.3789 16.2946 52.4016C16.3639 52.5625 16.429 52.7235 16.4901 52.8844C16.5094 52.9334 16.5288 52.9824 16.5464 53.0313C16.6133 53.215 16.6802 53.3987 16.7383 53.5841C16.7964 53.7695 16.8492 53.9549 16.9003 54.1403C16.9108 54.1788 16.9214 54.2191 16.9302 54.2593C16.9783 54.4389 17.0206 54.6191 17.0569 54.7998L17.0728 54.8908C17.1062 55.0552 17.1326 55.2196 17.1573 55.3841C17.1573 55.4138 17.1573 55.4435 17.1696 55.4733C17.1943 55.6482 17.2119 55.8231 17.226 55.998C17.226 56.0365 17.226 56.075 17.226 56.1135C17.2365 56.2884 17.2453 56.4721 17.2453 56.6488C17.2453 57.6983 17.0358 58.5817 16.6608 59.2586C16.5804 59.405 16.4892 59.5454 16.3879 59.6784C16.3386 59.7432 16.2876 59.8061 16.2348 59.8656C16.182 59.9251 16.1274 59.9811 16.071 60.0405C15.8637 60.2419 15.6261 60.4101 15.3668 60.5391L15.2823 60.581C15.2225 60.6073 15.1626 60.6335 15.1063 60.6563C15.0499 60.679 14.9566 60.7105 14.8809 60.7315H14.8616C14.8176 60.7437 14.7718 60.7525 14.7278 60.763L14.6485 60.7822C14.5693 60.7979 14.4883 60.8119 14.4073 60.8207H14.3827C14.2541 60.8354 14.1248 60.843 13.9954 60.8434H13.895C13.8246 60.8434 13.7524 60.8434 13.6802 60.8312H13.6538C13.5799 60.8312 13.5042 60.8154 13.4303 60.8049L12.6627 61.244C13.0885 61.3661 13.5292 61.4297 13.9725 61.4329C14.0324 61.4329 14.0905 61.4329 14.1485 61.4329C14.2066 61.4329 14.3088 61.4329 14.3827 61.4207L14.5183 61.4014C14.6045 61.3892 14.6943 61.3769 14.7683 61.3612L14.8915 61.3332L14.9408 61.3192C15.0165 61.3 15.0922 61.2807 15.1661 61.258L15.219 61.2405C16.8422 60.686 17.8351 59.0085 17.8351 56.6558C17.8369 53.4267 15.9549 49.6116 13.3845 47.2641Z" fill="#455A64"/>
<path d="M10.1222 45.7925L10.1574 45.7802L10.1979 45.7593L11.3898 45.0806C11.467 45.0316 11.5296 44.9629 11.5708 44.8816C11.612 44.8004 11.6303 44.7095 11.6239 44.6188V39.2276L10.425 39.9168V45.2975C10.4338 45.4012 10.4092 45.505 10.3548 45.594C10.3004 45.683 10.2189 45.7525 10.1222 45.7925Z" fill="#37474F"/>
<path d="M8.68566 45.0801C8.97393 45.0804 9.26155 45.1073 9.5448 45.1606C9.57966 45.1696 9.61618 45.1704 9.65141 45.1629C9.68665 45.1554 9.71962 45.1398 9.74769 45.1174C9.77576 45.0949 9.79815 45.0663 9.81305 45.0337C9.82796 45.0011 9.83497 44.9655 9.83353 44.9297V44.3944C9.40274 44.3976 8.97572 44.4745 8.57123 44.6218V45.0871C8.60996 45.0801 8.64693 45.0801 8.68566 45.0801Z" fill="#37474F"/>
<path d="M8.83703 45.6711C8.97611 45.6711 9.11871 45.6904 9.26308 45.7114C9.40412 45.7321 9.54398 45.7601 9.68208 45.7953C9.69027 45.7943 9.69855 45.7943 9.70673 45.7953H9.72258C9.76816 45.807 9.81471 45.8146 9.86166 45.8181H9.87398C9.91208 45.8207 9.95032 45.8207 9.98842 45.8181H10.0095C10.0456 45.813 10.081 45.8042 10.1152 45.7918C10.2119 45.7518 10.2934 45.6823 10.3478 45.5933C10.4022 45.5044 10.4268 45.4005 10.418 45.2968V39.9161L9.82645 39.5663V44.9242C9.82789 44.96 9.82088 44.9956 9.80597 45.0282C9.79107 45.0608 9.76868 45.0894 9.74061 45.1119C9.71254 45.1343 9.67957 45.1499 9.64433 45.1575C9.6091 45.165 9.57259 45.1641 9.53772 45.1551C9.25447 45.1019 8.96685 45.0749 8.67858 45.0746C8.63985 45.0746 8.60288 45.0746 8.56415 45.0746V45.6624H8.68915C8.749 45.6729 8.7895 45.6694 8.83703 45.6711Z" fill="#455A64"/>
<path d="M10.8 36.632C10.5817 36.5078 10.2824 36.5253 9.9514 36.7159C9.60065 36.9415 9.30877 37.2465 9.09973 37.6059C8.8907 37.9654 8.77048 38.369 8.74896 38.7835C8.74896 39.1666 8.88452 39.436 9.10107 39.5584L13.8968 42.3082L15.5869 39.3853L10.8 36.632Z" fill="#BA68C8"/>
<path opacity="0.3" d="M10.8 36.632C10.5817 36.5078 10.2824 36.5253 9.9514 36.7159C9.60065 36.9415 9.30877 37.2465 9.09973 37.6059C8.8907 37.9654 8.77048 38.369 8.74896 38.7835C8.74896 39.1666 8.88452 39.436 9.10107 39.5584L13.8968 42.3082L15.5869 39.3853L10.8 36.632Z" fill="black"/>
<path opacity="0.3" d="M8.89509 38.058C8.80412 38.2897 8.75466 38.5354 8.74896 38.784C8.74896 39.1671 8.88452 39.4364 9.10107 39.5589L13.8968 42.3087L14.4936 41.2766L8.89509 38.058Z" fill="black"/>
<path d="M13.5499 41.5339C13.5718 41.1201 13.692 40.7173 13.9007 40.3585C14.1094 39.9998 14.4006 39.6952 14.7506 39.4698C15.0781 39.2809 15.3756 39.2616 15.5921 39.3823C15.8087 39.503 15.9442 39.7742 15.9442 40.1572C15.9217 40.5709 15.8014 40.9736 15.5932 41.3325C15.3849 41.6914 15.0944 41.9965 14.7453 42.2231C14.4126 42.412 14.1133 42.4313 13.8968 42.3053C13.6802 42.1794 13.5499 41.9152 13.5499 41.5339Z" fill="#BA68C8"/>
<path opacity="0.2" d="M13.5499 41.5339C13.5718 41.1201 13.692 40.7173 13.9007 40.3585C14.1094 39.9998 14.4006 39.6952 14.7506 39.4698C15.0781 39.2809 15.3756 39.2616 15.5921 39.3823C15.8087 39.503 15.9442 39.7742 15.9442 40.1572C15.9217 40.5709 15.8014 40.9736 15.5932 41.3325C15.3849 41.6914 15.0944 41.9965 14.7453 42.2231C14.4126 42.412 14.1133 42.4313 13.8968 42.3053C13.6802 42.1794 13.5499 41.9152 13.5499 41.5339Z" fill="black"/>
<path d="M14.0693 41.2319C14.0822 40.9971 14.1506 40.7686 14.2689 40.5649C14.3873 40.3613 14.5524 40.1883 14.7507 40.0599C14.8158 40.0025 14.8974 39.9669 14.984 39.9583C15.0706 39.9497 15.1577 39.9684 15.233 40.0118C15.3083 40.0552 15.3678 40.1211 15.4032 40.2C15.4387 40.279 15.4481 40.3671 15.4302 40.4517C15.4173 40.6861 15.3491 40.9141 15.231 41.1174C15.113 41.3207 14.9484 41.4936 14.7507 41.622C14.6854 41.6787 14.604 41.7137 14.5177 41.7221C14.4315 41.7305 14.3447 41.712 14.2696 41.669C14.1945 41.626 14.1348 41.5607 14.0989 41.4823C14.063 41.404 14.0527 41.3164 14.0693 41.2319Z" fill="#37474F"/>
<path d="M15.1115 40.277C15.1149 40.1715 15.09 40.0671 15.0393 39.9743C14.9372 39.9802 14.8381 40.0108 14.7506 40.0635C14.5523 40.1919 14.3872 40.3649 14.2689 40.5686C14.1505 40.7722 14.0821 41.0007 14.0693 41.2355C14.0668 41.3409 14.0916 41.4451 14.1414 41.5382C14.2441 41.5323 14.3438 41.5017 14.4319 41.4489C14.6299 41.3204 14.7946 41.1473 14.9127 40.9436C15.0307 40.74 15.0989 40.5116 15.1115 40.277Z" fill="#263238"/>
<path d="M41.9949 18.7363C41.7783 18.6121 41.4773 18.6296 41.1463 18.8202C40.7969 19.0463 40.5061 19.351 40.2975 19.7096C40.0889 20.0683 39.9683 20.4707 39.9456 20.8843C39.9456 21.2674 40.0829 21.5351 40.2977 21.6593L45.0916 24.4091L46.7835 21.4861L41.9949 18.7363Z" fill="#BA68C8"/>
<path opacity="0.3" d="M41.9949 18.7363C41.7783 18.6121 41.4773 18.6296 41.1463 18.8202C40.7969 19.0463 40.5061 19.351 40.2975 19.7096C40.0889 20.0683 39.9683 20.4707 39.9456 20.8843C39.9456 21.2674 40.0829 21.5351 40.2977 21.6593L45.0916 24.4091L46.7835 21.4861L41.9949 18.7363Z" fill="black"/>
<path opacity="0.3" d="M40.0864 20.1607C39.9972 20.3922 39.9484 20.6371 39.942 20.8849C39.942 21.2679 40.0793 21.5356 40.2941 21.6598L45.088 24.4096L45.6866 23.3758L40.0864 20.1607Z" fill="black"/>
<path d="M44.7465 23.6385C44.769 23.2248 44.8893 22.8222 45.0976 22.4633C45.3059 22.1044 45.5964 21.7993 45.9454 21.5727C46.2747 21.3855 46.5722 21.3662 46.7887 21.4869C47.0053 21.6076 47.1408 21.8788 47.1408 22.2619C47.119 22.6757 46.9988 23.0785 46.7901 23.4372C46.5814 23.796 46.2901 24.1006 45.9402 24.326C45.6092 24.5166 45.3099 24.5341 45.0916 24.4099C44.8733 24.2857 44.7465 24.0181 44.7465 23.6385Z" fill="#BA68C8"/>
<path opacity="0.2" d="M44.7465 23.6385C44.769 23.2248 44.8893 22.8222 45.0976 22.4633C45.3059 22.1044 45.5964 21.7993 45.9454 21.5727C46.2747 21.3855 46.5722 21.3662 46.7887 21.4869C47.0053 21.6076 47.1408 21.8788 47.1408 22.2619C47.119 22.6757 46.9988 23.0785 46.7901 23.4372C46.5814 23.796 46.2901 24.1006 45.9402 24.326C45.6092 24.5166 45.3099 24.5341 45.0916 24.4099C44.8733 24.2857 44.7465 24.0181 44.7465 23.6385Z" fill="black"/>
<path d="M45.2659 23.341C45.2785 23.1063 45.3466 22.8779 45.4647 22.6743C45.5828 22.4707 45.7475 22.2976 45.9454 22.169C46.014 22.12 46.0943 22.0898 46.1783 22.0812C46.2623 22.0726 46.3471 22.086 46.4243 22.12C46.4947 22.1683 46.5507 22.2346 46.5863 22.3119C46.6219 22.3892 46.6359 22.4746 46.6268 22.5591C46.6142 22.794 46.5459 23.0226 46.4275 23.2262C46.3091 23.4299 46.1439 23.6029 45.9454 23.7311C45.8805 23.7882 45.799 23.8236 45.7127 23.8322C45.6263 23.8409 45.5394 23.8223 45.4643 23.7792C45.3891 23.736 45.3295 23.6705 45.2939 23.5919C45.2583 23.5132 45.2485 23.4255 45.2659 23.341Z" fill="#37474F"/>
<path d="M46.3081 22.3831C46.3106 22.2778 46.2857 22.1736 46.2359 22.0805C46.1332 22.0863 46.0335 22.1169 45.9455 22.1697C45.7472 22.2982 45.5823 22.4712 45.4639 22.6749C45.3455 22.8785 45.2771 23.1069 45.2641 23.3417C45.2613 23.4473 45.2868 23.5518 45.3381 23.6443C45.4402 23.6384 45.5393 23.6078 45.6268 23.5551C45.825 23.4266 45.99 23.2536 46.1083 23.05C46.2267 22.8464 46.2951 22.6179 46.3081 22.3831Z" fill="#263238"/>
<path d="M45.6867 8.80159L40.5107 5.82789C40.1793 5.2005 39.7815 4.61001 39.3241 4.06641C42.1022 4.54745 44.2994 6.21972 45.6867 8.80159Z" fill="#BA68C8"/>
<path opacity="0.2" d="M45.6867 8.80159L40.5107 5.82789C40.1793 5.2005 39.7815 4.61001 39.3241 4.06641C42.1022 4.54745 44.2994 6.21972 45.6867 8.80159Z" fill="black"/>
<path d="M44.7289 21.6019C44.9922 20.2111 45.1283 18.7996 45.1356 17.3845C45.1356 7.81789 38.3769 3.93983 30.039 8.724C21.7011 13.5082 14.9407 25.1388 14.9407 34.7054C14.9326 35.9681 15.0696 37.2275 15.3492 38.4593L13.402 39.5771C13.1596 38.3299 13.0417 37.0619 13.0499 35.7917C13.0499 25.0251 20.6589 11.9303 30.0443 6.54794C39.4297 1.16554 47.0369 5.52814 47.0369 16.2964C47.0339 17.703 46.9162 19.107 46.6848 20.4946L44.7482 21.6089" fill="#37474F"/>
<path d="M44.7306 21.6016C44.9926 20.2101 45.1281 18.798 45.1356 17.3824C45.1356 11.0729 42.1955 7.23685 37.7994 6.73132C39.1744 8.55403 39.9631 11.1551 39.9631 14.428C39.9547 15.8395 39.8192 17.2474 39.5582 18.6349L44.7306 21.6016Z" fill="#263238"/>
<path d="M41.7465 5.19832C38.6973 3.624 34.5759 3.94936 30.039 6.55223C20.6518 11.9311 13.0446 25.0242 13.0446 35.7942C13.0363 37.0633 13.1542 38.3301 13.3967 39.5761L8.23307 36.6129C7.98538 35.3692 7.8633 34.1041 7.86864 32.8363C7.86864 22.068 15.4759 8.97492 24.863 3.59077C29.5513 0.900438 33.7942 0.646798 36.8698 2.40828C37.6586 2.85259 40.5617 4.51961 41.7465 5.19832Z" fill="#455A64"/>
<path d="M10.7595 35.1465C10.6156 35.1414 10.4754 35.0992 10.3529 35.0241C10.101 34.8606 9.89108 34.6409 9.74006 34.3824C9.58903 34.1239 9.50104 33.8338 9.48315 33.5355C9.48315 33.1366 9.6909 32.8795 10.0113 32.8795C10.1551 32.8839 10.2953 32.9255 10.418 33.0002C10.6705 33.1651 10.8806 33.3863 11.0316 33.6463C11.1826 33.9063 11.2703 34.1978 11.2877 34.4975C11.2859 34.8876 11.0782 35.1465 10.7595 35.1465Z" fill="#263238"/>
<path d="M42.5142 4.16427C41.011 3.36311 39.3274 2.95499 37.6217 2.97829C35.0285 2.97829 32.2627 3.81092 29.3983 5.45171C22.7699 9.2528 16.9865 16.7868 13.976 24.7301L8.80359 21.7564C11.8141 13.8131 17.6062 6.2791 24.2258 2.478C27.0902 0.837218 29.8595 0.00108216 32.4493 0.00108216C34.2199 -0.0229689 35.9652 0.420078 37.5073 1.28502C38.3259 1.76431 41.4192 3.53454 42.5142 4.16427Z" fill="#BA68C8"/>
<path opacity="0.6" d="M42.5142 4.16427C41.011 3.36311 39.3274 2.95499 37.6217 2.97829C35.0285 2.97829 32.2627 3.81092 29.3983 5.45171C22.7699 9.2528 16.9865 16.7868 13.976 24.7301L8.80359 21.7564C11.8141 13.8131 17.6062 6.2791 24.2258 2.478C27.0902 0.837218 29.8595 0.00108216 32.4493 0.00108216C34.2199 -0.0229689 35.9652 0.420078 37.5073 1.28502C38.3259 1.76431 41.4192 3.53454 42.5142 4.16427Z" fill="white"/>
<path d="M45.6849 8.79891C44.0264 5.722 41.2114 3.92553 37.6216 3.92553C35.1974 3.92553 32.59 4.71444 29.8753 6.27301C23.3789 9.99889 17.7153 17.4122 14.8034 25.205L13.976 24.7292C16.9865 16.7859 22.7698 9.25196 29.3982 5.45087C32.2626 3.81008 35.0319 2.97745 37.6216 2.97745C41.3997 2.97745 44.4014 4.75117 46.2482 7.83158L45.6849 8.79891Z" fill="#BA68C8"/>
</g>
<path d="M60.2397 24.6779C60.2397 23.2873 60.5054 21.9826 61.0366 20.7638C61.5679 19.5451 62.2866 18.4826 63.1929 17.5763C64.1147 16.6544 65.1851 15.9279 66.4038 15.3966C67.6226 14.8654 68.9272 14.5998 70.3179 14.5998H85.7397V21.3263H70.3179C69.8491 21.3263 69.4116 21.4123 69.0054 21.5841C68.5991 21.756 68.2397 21.9982 67.9272 22.3107C67.6304 22.6076 67.396 22.9591 67.2241 23.3654C67.0522 23.7716 66.9663 24.2091 66.9663 24.6779C66.9663 25.1466 67.0522 25.5919 67.2241 26.0138C67.396 26.4201 67.6304 26.7794 67.9272 27.0919C68.2397 27.3888 68.5991 27.6232 69.0054 27.7951C69.4116 27.9669 69.8491 28.0529 70.3179 28.0529H77.0444C78.4351 28.0529 79.7397 28.3185 80.9585 28.8498C82.1929 29.3654 83.2632 30.0841 84.1694 31.006C85.0913 31.9123 85.8101 32.9826 86.3257 34.2169C86.8569 35.4357 87.1226 36.7404 87.1226 38.131C87.1226 39.5216 86.8569 40.8263 86.3257 42.0451C85.8101 43.2638 85.0913 44.3341 84.1694 45.256C83.2632 46.1623 82.1929 46.881 80.9585 47.4123C79.7397 47.9435 78.4351 48.2091 77.0444 48.2091H62.1147V41.4826H77.0444C77.5132 41.4826 77.9507 41.3966 78.3569 41.2248C78.7632 41.0529 79.1147 40.8185 79.4116 40.5216C79.7241 40.2091 79.9663 39.8498 80.1382 39.4435C80.3101 39.0373 80.396 38.5998 80.396 38.131C80.396 37.6623 80.3101 37.2248 80.1382 36.8185C79.9663 36.4123 79.7241 36.0607 79.4116 35.7638C79.1147 35.4513 78.7632 35.2091 78.3569 35.0373C77.9507 34.8654 77.5132 34.7794 77.0444 34.7794H70.3179C68.9272 34.7794 67.6226 34.5138 66.4038 33.9826C65.1851 33.4513 64.1147 32.7326 63.1929 31.8263C62.2866 30.9044 61.5679 29.8341 61.0366 28.6154C60.5054 27.381 60.2397 26.0685 60.2397 24.6779ZM117.24 14.5998L106.201 48.2091H99.4741L88.4819 14.5998H96.1226L102.826 37.0294L109.552 14.5998H117.24ZM127.201 48.2091H120.474V14.5998H127.201V48.2091ZM147.568 48.2091H140.865V21.3263H130.763V14.5998H157.646V21.3263H147.568V48.2091ZM159.005 24.6779C159.005 23.2873 159.271 21.9826 159.802 20.7638C160.333 19.5451 161.052 18.4826 161.958 17.5763C162.88 16.6544 163.951 15.9279 165.169 15.3966C166.388 14.8654 167.693 14.5998 169.083 14.5998H184.505V21.3263H169.083C168.615 21.3263 168.177 21.4123 167.771 21.5841C167.365 21.756 167.005 21.9982 166.693 22.3107C166.396 22.6076 166.162 22.9591 165.99 23.3654C165.818 23.7716 165.732 24.2091 165.732 24.6779C165.732 25.1466 165.818 25.5919 165.99 26.0138C166.162 26.4201 166.396 26.7794 166.693 27.0919C167.005 27.3888 167.365 27.6232 167.771 27.7951C168.177 27.9669 168.615 28.0529 169.083 28.0529H175.81C177.201 28.0529 178.505 28.3185 179.724 28.8498C180.958 29.3654 182.029 30.0841 182.935 31.006C183.857 31.9123 184.576 32.9826 185.091 34.2169C185.623 35.4357 185.888 36.7404 185.888 38.131C185.888 39.5216 185.623 40.8263 185.091 42.0451C184.576 43.2638 183.857 44.3341 182.935 45.256C182.029 46.1623 180.958 46.881 179.724 47.4123C178.505 47.9435 177.201 48.2091 175.81 48.2091H160.88V41.4826H175.81C176.279 41.4826 176.716 41.3966 177.123 41.2248C177.529 41.0529 177.88 40.8185 178.177 40.5216C178.49 40.2091 178.732 39.8498 178.904 39.4435C179.076 39.0373 179.162 38.5998 179.162 38.131C179.162 37.6623 179.076 37.2248 178.904 36.8185C178.732 36.4123 178.49 36.0607 178.177 35.7638C177.88 35.4513 177.529 35.2091 177.123 35.0373C176.716 34.8654 176.279 34.7794 175.81 34.7794H169.083C167.693 34.7794 166.388 34.5138 165.169 33.9826C163.951 33.4513 162.88 32.7326 161.958 31.8263C161.052 30.9044 160.333 29.8341 159.802 28.6154C159.271 27.381 159.005 26.0685 159.005 24.6779ZM223.669 48.2091H216.966V24.2091C216.966 23.7404 216.873 23.3029 216.685 22.8966C216.513 22.4904 216.271 22.1388 215.958 21.8419C215.662 21.5294 215.31 21.2873 214.904 21.1154C214.498 20.9435 214.06 20.8576 213.591 20.8576C213.123 20.8576 212.685 20.9435 212.279 21.1154C211.873 21.2873 211.513 21.5294 211.201 21.8419C210.904 22.1388 210.669 22.4904 210.498 22.8966C210.326 23.3029 210.24 23.7404 210.24 24.2091V48.2091H203.513V24.2091C203.513 23.7404 203.427 23.3029 203.255 22.8966C203.083 22.4904 202.841 22.1388 202.529 21.8419C202.232 21.5294 201.88 21.2873 201.474 21.1154C201.068 20.9435 200.63 20.8576 200.162 20.8576C199.693 20.8576 199.255 20.9435 198.849 21.1154C198.443 21.2873 198.083 21.5294 197.771 21.8419C197.474 22.1388 197.24 22.4904 197.068 22.8966C196.896 23.3029 196.81 23.7404 196.81 24.2091V48.2091H190.083V24.2091C190.083 22.8185 190.341 21.5138 190.857 20.2951C191.388 19.0607 192.107 17.9904 193.013 17.0841C193.935 16.1623 195.005 15.4435 196.224 14.9279C197.458 14.3966 198.771 14.131 200.162 14.131C201.412 14.131 202.615 14.3576 203.771 14.8107C204.927 15.2482 205.966 15.8888 206.888 16.7326C207.81 15.8888 208.841 15.2482 209.982 14.8107C211.138 14.3576 212.341 14.131 213.591 14.131C214.982 14.131 216.287 14.3966 217.505 14.9279C218.74 15.4435 219.81 16.1623 220.716 17.0841C221.638 17.9904 222.357 19.0607 222.873 20.2951C223.404 21.5138 223.669 22.8185 223.669 24.2091V48.2091Z" fill="black"/>
<defs>
<filter id="filter0_d_1_387" x="0.8125" y="0.000152588" width="53.9269" height="70.4016" filterUnits="userSpaceOnUse" color-interpolation-filters="sRGB">
<feFlood flood-opacity="0" result="BackgroundImageFix"/>
<feColorMatrix in="SourceAlpha" type="matrix" values="0 0 0 0 0 0 0 0 0 0 0 0 0 0 0 0 0 0 127 0" result="hardAlpha"/>
<feOffset dy="4"/>
<feGaussianBlur stdDeviation="2"/>
<feComposite in2="hardAlpha" operator="out"/>
<feColorMatrix type="matrix" values="0 0 0 0 0 0 0 0 0 0 0 0 0 0 0 0 0 0 0.25 0"/>
<feBlend mode="normal" in2="BackgroundImageFix" result="effect1_dropShadow_1_387"/>
<feBlend mode="normal" in="SourceGraphic" in2="effect1_dropShadow_1_387" result="shape"/>
</filter>
<filter id="filter1_dd_1_387" x="23.6377" y="28.1767" width="25.1388" height="29.6451" filterUnits="userSpaceOnUse" color-interpolation-filters="sRGB">
<feFlood flood-opacity="0" result="BackgroundImageFix"/>
<feColorMatrix in="SourceAlpha" type="matrix" values="0 0 0 0 0 0 0 0 0 0 0 0 0 0 0 0 0 0 127 0" result="hardAlpha"/>
<feOffset dy="4"/>
<feGaussianBlur stdDeviation="2"/>
<feComposite in2="hardAlpha" operator="out"/>
<feColorMatrix type="matrix" values="0 0 0 0 0 0 0 0 0 0 0 0 0 0 0 0 0 0 0.25 0"/>
<feBlend mode="normal" in2="BackgroundImageFix" result="effect1_dropShadow_1_387"/>
<feColorMatrix in="SourceAlpha" type="matrix" values="0 0 0 0 0 0 0 0 0 0 0 0 0 0 0 0 0 0 127 0" result="hardAlpha"/>
<feOffset dy="4"/>
<feGaussianBlur stdDeviation="2"/>
<feComposite in2="hardAlpha" operator="out"/>
<feColorMatrix type="matrix" values="0 0 0 0 0 0 0 0 0 0 0 0 0 0 0 0 0 0 0.25 0"/>
<feBlend mode="normal" in2="effect1_dropShadow_1_387" result="effect2_dropShadow_1_387"/>
<feBlend mode="normal" in="SourceGraphic" in2="effect2_dropShadow_1_387" result="shape"/>
</filter>
</defs>
</svg>
