<svg width="24" height="25" viewBox="0 0 24 25" fill="none" xmlns="http://www.w3.org/2000/svg">
<path d="M22 10.5V6.5C22 5.39 21.1 4.5 20 4.5H4C2.9 4.5 2.01 5.39 2.01 6.5V10.5C3.11 10.5 4 11.4 4 12.5C4 13.6 3.11 14.5 2 14.5V18.5C2 19.6 2.9 20.5 4 20.5H20C21.1 20.5 22 19.6 22 18.5V14.5C20.9 14.5 20 13.6 20 12.5C20 11.4 20.9 10.5 22 10.5ZM20 9.04C18.81 9.73 18 11.03 18 12.5C18 13.97 18.81 15.27 20 15.96V18.5H4V15.96C5.19 15.27 6 13.97 6 12.5C6 11.02 5.2 9.73 4.01 9.04L4 6.5H12H20V9.04Z" fill="#2C2B2B"/>
<g clip-path="url(#clip0_415_6489)">
<path d="M11.9998 10.8332C11.079 10.8332 10.3332 11.579 10.3332 12.4998C10.3332 13.4207 11.079 14.1665 11.9998 14.1665C12.9207 14.1665 13.6665 13.4207 13.6665 12.4998C13.6665 11.579 12.9207 10.8332 11.9998 10.8332ZM15.7248 12.0832C15.5332 10.3457 14.154 8.9665 12.4165 8.77484V7.9165H11.5832V8.77484C9.84567 8.9665 8.4665 10.3457 8.27484 12.0832H7.4165V12.9165H8.27484C8.4665 14.654 9.84567 16.0332 11.5832 16.2248V17.0832H12.4165V16.2248C14.154 16.0332 15.5332 14.654 15.7248 12.9165H16.5832V12.0832H15.7248ZM11.9998 15.4165C10.3873 15.4165 9.08317 14.1123 9.08317 12.4998C9.08317 10.8873 10.3873 9.58317 11.9998 9.58317C13.6123 9.58317 14.9165 10.8873 14.9165 12.4998C14.9165 14.1123 13.6123 15.4165 11.9998 15.4165Z" fill="black"/>
</g>
<defs>
<clipPath id="clip0_415_6489">
<rect width="10" height="10" fill="white" transform="translate(7 7.5)"/>
</clipPath>
</defs>
</svg>
