<svg width="24" height="25" viewBox="0 0 24 25" fill="none" xmlns="http://www.w3.org/2000/svg">
<path d="M22 10.5V6.5C22 5.39 21.1 4.5 20 4.5H4C2.9 4.5 2.01 5.39 2.01 6.5V10.5C3.11 10.5 4 11.4 4 12.5C4 13.6 3.11 14.5 2 14.5V18.5C2 19.6 2.9 20.5 4 20.5H20C21.1 20.5 22 19.6 22 18.5V14.5C20.9 14.5 20 13.6 20 12.5C20 11.4 20.9 10.5 22 10.5ZM20 9.04C18.81 9.73 18 11.03 18 12.5C18 13.97 18.81 15.27 20 15.96V18.5H4V15.96C5.19 15.27 6 13.97 6 12.5C6 11.02 5.2 9.73 4.01 9.04L4 6.5H12H20V9.04Z" fill="#2C2B2B"/>
<path d="M12.0002 8.3335C9.7085 8.3335 7.8335 10.2085 7.8335 12.5002C7.8335 14.7918 9.7085 16.6668 12.0002 16.6668C14.2918 16.6668 16.1668 14.7918 16.1668 12.5002C16.1668 10.2085 14.2918 8.3335 12.0002 8.3335ZM12.0002 15.8335C10.1627 15.8335 8.66683 14.3377 8.66683 12.5002C8.66683 10.6627 10.1627 9.16683 12.0002 9.16683C13.8377 9.16683 15.3335 10.6627 15.3335 12.5002C15.3335 14.3377 13.8377 15.8335 12.0002 15.8335ZM12.2085 10.4168H11.5835V12.9168L13.7502 14.2502L14.0835 13.7085L12.2085 12.5835V10.4168Z" fill="black"/>
</svg>
